<svg width="40" height="40" viewBox="0 0 40 40" fill="none" xmlns="http://www.w3.org/2000/svg">
<g clip-path="url(#clip0_0_452)">
<path fill-rule="evenodd" clip-rule="evenodd" d="M20 40C31.0457 40 40 31.0457 40 20C40 8.9543 31.0457 0 20 0C8.9543 0 0 8.9543 0 20C0 31.0457 8.9543 40 20 40Z" fill="white"/>
<path d="M19.5714 13.2857C14.8393 13.2857 11 17.125 11 21.8571C11 25.6406 13.4554 28.8549 16.8594 29.9933C17.2946 30.0714 17.4509 29.8036 17.4509 29.5804C17.4509 29.3683 17.4397 28.6987 17.4397 27.9844C17.4397 27.9844 15.0513 28.4978 14.5491 26.9687C14.5491 26.9687 14.1585 25.9754 13.6004 25.7188C13.6004 25.7188 12.8192 25.183 13.6562 25.1942C13.6562 25.1942 14.5045 25.2612 14.9732 26.0759C15.721 27.3929 16.971 27.0134 17.4621 26.7902C17.5402 26.2433 17.7634 25.8638 18.0089 25.6406C16.1004 25.4286 14.1027 24.692 14.1027 21.4107C14.1027 20.4732 14.4375 19.7143 14.9844 19.1116C14.8951 18.8884 14.6049 18.0179 15.0737 16.8348C15.7879 16.6116 17.4286 17.7165 17.4286 17.7165C18.1094 17.5268 18.846 17.4263 19.5714 17.4263C20.2969 17.4263 21.0335 17.5268 21.7143 17.7165C21.7143 17.7165 23.3549 16.6116 24.0692 16.8348C24.5379 18.0179 24.2478 18.8884 24.1585 19.1116C24.7054 19.7143 25.0402 20.4732 25.0402 21.4107C25.0402 24.7031 23.0312 25.4286 21.1228 25.6406C21.4353 25.9085 21.7031 26.4219 21.7031 27.2254C21.7031 28.375 21.692 29.3013 21.692 29.5804C21.692 29.8036 21.8482 30.0714 22.2835 29.9933C25.6875 28.8549 28.1429 25.6406 28.1429 21.8571C28.1429 17.125 24.3036 13.2857 19.5714 13.2857ZM14.2478 25.596C14.2254 25.6406 14.1585 25.6518 14.1027 25.6183C14.0357 25.5848 14.0022 25.529 14.0246 25.4844C14.0469 25.4509 14.1027 25.4397 14.1696 25.4621C14.2366 25.4955 14.2701 25.5513 14.2478 25.596ZM14.5938 25.9754C14.5491 26.0201 14.471 25.9978 14.4152 25.942C14.3594 25.875 14.3482 25.7969 14.3929 25.7634C14.4375 25.7188 14.5156 25.7411 14.5714 25.7969C14.6272 25.8638 14.6384 25.942 14.5938 25.9754ZM14.9286 26.4777C14.8839 26.5112 14.7946 26.4777 14.7388 26.3996C14.683 26.3214 14.683 26.2321 14.7388 26.1987C14.7946 26.154 14.8839 26.1875 14.9286 26.2656C14.9844 26.3438 14.9844 26.433 14.9286 26.4777ZM15.3973 26.9464C15.3527 27.0022 15.2522 26.9911 15.1741 26.9129C15.096 26.846 15.0737 26.7455 15.1295 26.7009C15.1741 26.6451 15.2746 26.6562 15.3527 26.7344C15.4196 26.8013 15.442 26.9018 15.3973 26.9464ZM16.0335 27.2254C16.0112 27.2924 15.9107 27.3259 15.8214 27.2924C15.721 27.2701 15.654 27.192 15.6763 27.125C15.6987 27.058 15.7991 27.0246 15.8884 27.0469C15.9888 27.0804 16.0558 27.1585 16.0335 27.2254ZM16.7366 27.2812C16.7366 27.3482 16.6585 27.404 16.558 27.404C16.4464 27.4152 16.3683 27.3594 16.3683 27.2812C16.3683 27.2143 16.4464 27.1585 16.5469 27.1585C16.6473 27.1473 16.7366 27.2031 16.7366 27.2812ZM17.3839 27.1696C17.3951 27.2366 17.3281 27.3036 17.2277 27.3259C17.1272 27.3482 17.0379 27.3036 17.0268 27.2366C17.0156 27.1585 17.0826 27.0915 17.183 27.0692C17.2835 27.058 17.3728 27.1027 17.3839 27.1696Z" fill="#141414"/>
</g>
<defs>
<clipPath id="clip0_0_452">
<rect width="40" height="40" fill="white"/>
</clipPath>
</defs>
</svg>
